<svg width="56" height="56" viewBox="0 0 56 56" fill="none" xmlns="http://www.w3.org/2000/svg">
<g id="Group 9">
<circle id="Oval" cx="28" cy="28" r="28" fill="black"/>
<g id="Group 16">
<path id="Path 5" d="M15.5651 28.5651C16.2789 27.8513 17.4128 27.8137 18.1708 28.4524L18.2935 28.5651L28.4349 38.7065C29.1884 39.4599 29.1884 40.6815 28.4349 41.4349C27.7211 42.1487 26.5872 42.1863 25.8292 41.5476L25.7065 41.4349L15.5651 31.2935C14.8116 30.5401 14.8116 29.3185 15.5651 28.5651Z" fill="#444444"/>
<g id="Path 4">
<path id="Path 3" d="M36.1895 17.4803C37.1961 16.4845 38.8963 17.1397 38.9955 18.5057L39 18.6318V29.3682C39 30.2676 38.2629 30.9967 37.3536 30.9967C36.4857 30.9967 35.7746 30.3324 35.7118 29.4897L35.7073 29.3682L35.707 22.5631L27.6642 30.5197C26.6575 31.5155 24.9573 30.8603 24.8582 29.4943L24.8536 29.3682L24.8533 22.5631L16.8105 30.5197C16.2014 31.1223 15.2338 31.154 14.5869 30.6149L14.4822 30.5197C13.8731 29.9172 13.841 28.96 14.386 28.3202L14.4822 28.2166L25.3358 17.4803C26.3425 16.4845 28.0427 17.1397 28.1418 18.5057L28.1464 18.6318L28.1461 25.4358L36.1895 17.4803Z" fill="white"/>
</g>
</g>
</g>
</svg>
